# xmcd CD database file generated by OrangeCD 6.4
#
# Track frame offsets:
#	150
#	59888
#	89405
#	138270
#	142981
#	170252
#	200699
#	232757
#	267356
#
# Disc length: 4047 seconds
#
# Revision: 0
# Processed by: cddbd v1.5.2PL0 Copyright (c) Steve Scherf et al.
# Submitted via: OrangeCD 6.4
#
DISCID=7f0fcd09
DTITLE=John Sinclair and His Blues Scholars - Fattening Frogs For Snakes, Vol. 3:
DTITLE=Don't Start Me to Talkin'
DYEAR=2009
DGENRE=
TTITLE0=Fattening Frogs For Snakes W/Afrissippi
TTITLE1=Don't Start Me To Talkin'
TTITLE2=It Was The Way These People Lived
TTITLE3=King Biscuit Time
TTITLE4=Decoration Day
TTITLE5=Swinging The Blues
TTITLE6=Shake 'em Down
TTITLE7=Doctor Blues
TTITLE8=The 44's
EXTD=
EXTT0=
EXTT1=
EXTT2=
EXTT3=
EXTT4=
EXTT5=
EXTT6=
EXTT7=
EXTT8=
PLAYORDER=
